<svg width="104" height="40" viewBox="0 0 104 40" fill="none" xmlns="http://www.w3.org/2000/svg">
<path d="M11 21V18H16V21C16 25.4183 12.4183 29 8 29C3.58172 29 0 25.4183 0 21V18H5V21C5 22.6569 6.34315 24 8 24C9.65685 24 11 22.6569 11 21Z" fill="#09AD64"></path>
<path d="M0 11V15H5V11H0Z" fill="#3875EA"></path>
<path d="M11 11V15H16V11H11Z" fill="#CC5849"></path>
<path d="M30.698 26.204C29.0093 26.204 27.689 25.7337 26.737 24.793C25.785 23.8523 25.309 22.5093 25.309 20.764V14.1H28.063V20.662C28.063 21.7953 28.2953 22.6113 28.76 23.11C29.2246 23.6087 29.8763 23.858 30.715 23.858C31.5536 23.858 32.2053 23.6087 32.67 23.11C33.1346 22.6113 33.367 21.7953 33.367 20.662V14.1H36.087V20.764C36.087 22.5093 35.611 23.8523 34.659 24.793C33.707 25.7337 32.3866 26.204 30.698 26.204Z" fill="black"></path>
<path d="M44.1804 16.718C44.9058 16.718 45.5518 16.8653 46.1184 17.16C46.6964 17.4433 47.1498 17.8853 47.4784 18.486C47.8071 19.0753 47.9714 19.8347 47.9714 20.764V26H45.3194V21.172C45.3194 20.4353 45.1551 19.8913 44.8264 19.54C44.5091 19.1887 44.0558 19.013 43.4664 19.013C43.0471 19.013 42.6674 19.1037 42.3274 19.285C41.9988 19.455 41.7381 19.7213 41.5454 20.084C41.3641 20.4467 41.2734 20.9113 41.2734 21.478V26H38.6214V16.854H41.1544V19.387L40.6784 18.622C41.0071 18.01 41.4774 17.5397 42.0894 17.211C42.7014 16.8823 43.3984 16.718 44.1804 16.718Z" fill="black"></path>
<path d="M50.3753 26V13.386H53.0273V26H50.3753Z" fill="black"></path>
<path d="M55.4886 26V16.854H58.1406V26H55.4886ZM56.8146 15.579C56.3273 15.579 55.9306 15.4373 55.6246 15.154C55.3186 14.8707 55.1656 14.5193 55.1656 14.1C55.1656 13.6807 55.3186 13.3293 55.6246 13.046C55.9306 12.7627 56.3273 12.621 56.8146 12.621C57.3019 12.621 57.6986 12.757 58.0046 13.029C58.3106 13.2897 58.4636 13.6297 58.4636 14.049C58.4636 14.491 58.3106 14.8593 58.0046 15.154C57.7099 15.4373 57.3133 15.579 56.8146 15.579Z" fill="black"></path>
<path d="M72.3149 16.718C73.0402 16.718 73.6806 16.8653 74.2359 17.16C74.8026 17.4433 75.2446 17.8853 75.5619 18.486C75.8906 19.0753 76.0549 19.8347 76.0549 20.764V26H73.4029V21.172C73.4029 20.4353 73.2499 19.8913 72.9439 19.54C72.6379 19.1887 72.2072 19.013 71.6519 19.013C71.2666 19.013 70.9209 19.1037 70.6149 19.285C70.3089 19.455 70.0709 19.7157 69.9009 20.067C69.7309 20.4183 69.6459 20.866 69.6459 21.41V26H66.9939V21.172C66.9939 20.4353 66.8409 19.8913 66.5349 19.54C66.2402 19.1887 65.8152 19.013 65.2599 19.013C64.8746 19.013 64.5289 19.1037 64.2229 19.285C63.9169 19.455 63.6789 19.7157 63.5089 20.067C63.3389 20.4183 63.2539 20.866 63.2539 21.41V26H60.6019V16.854H63.1349V19.353L62.6589 18.622C62.9762 17.9987 63.4239 17.5283 64.0019 17.211C64.5912 16.8823 65.2599 16.718 66.0079 16.718C66.8466 16.718 67.5776 16.9333 68.2009 17.364C68.8356 17.7833 69.2549 18.4293 69.4589 19.302L68.5239 19.047C68.8299 18.333 69.3172 17.7663 69.9859 17.347C70.6659 16.9277 71.4422 16.718 72.3149 16.718Z" fill="black"></path>
<path d="M79.435 26.136C78.9816 26.136 78.5906 25.983 78.262 25.677C77.9446 25.3597 77.786 24.9573 77.786 24.47C77.786 23.9827 77.9446 23.5917 78.262 23.297C78.5906 22.991 78.9816 22.838 79.435 22.838C79.8996 22.838 80.2906 22.991 80.608 23.297C80.9253 23.5917 81.084 23.9827 81.084 24.47C81.084 24.9573 80.9253 25.3597 80.608 25.677C80.2906 25.983 79.8996 26.136 79.435 26.136Z" fill="black"></path>
<path d="M87.0826 29.434C86.2212 29.434 85.3882 29.3263 84.5836 29.111C83.7902 28.907 83.1272 28.5953 82.5946 28.176L83.6486 26.272C84.0339 26.5893 84.5212 26.8387 85.1106 27.02C85.7112 27.2127 86.3006 27.309 86.8786 27.309C87.8192 27.309 88.4992 27.0993 88.9186 26.68C89.3492 26.2607 89.5646 25.6373 89.5646 24.81V23.433L89.7346 21.138L89.7006 18.826V16.854H92.2166V24.47C92.2166 26.17 91.7746 27.4223 90.8906 28.227C90.0066 29.0317 88.7372 29.434 87.0826 29.434ZM86.6746 25.558C85.8246 25.558 85.0539 25.3767 84.3626 25.014C83.6826 24.64 83.1329 24.1243 82.7136 23.467C82.3056 22.7983 82.1016 22.022 82.1016 21.138C82.1016 20.2427 82.3056 19.4663 82.7136 18.809C83.1329 18.1403 83.6826 17.6247 84.3626 17.262C85.0539 16.8993 85.8246 16.718 86.6746 16.718C87.4452 16.718 88.1252 16.8767 88.7146 17.194C89.3039 17.5 89.7629 17.9817 90.0916 18.639C90.4202 19.285 90.5846 20.118 90.5846 21.138C90.5846 22.1467 90.4202 22.9797 90.0916 23.637C89.7629 24.283 89.3039 24.7647 88.7146 25.082C88.1252 25.3993 87.4452 25.558 86.6746 25.558ZM87.2016 23.382C87.6662 23.382 88.0799 23.2913 88.4426 23.11C88.8052 22.9173 89.0886 22.651 89.2926 22.311C89.4966 21.971 89.5986 21.58 89.5986 21.138C89.5986 20.6847 89.4966 20.2937 89.2926 19.965C89.0886 19.625 88.8052 19.3643 88.4426 19.183C88.0799 18.9903 87.6662 18.894 87.2016 18.894C86.7369 18.894 86.3232 18.9903 85.9606 19.183C85.5979 19.3643 85.3089 19.625 85.0936 19.965C84.8896 20.2937 84.7876 20.6847 84.7876 21.138C84.7876 21.58 84.8896 21.971 85.0936 22.311C85.3089 22.651 85.5979 22.9173 85.9606 23.11C86.3232 23.2913 86.7369 23.382 87.2016 23.382Z" fill="black"></path>
<path d="M99.2239 26.136C98.1812 26.136 97.2632 25.932 96.4699 25.524C95.6879 25.116 95.0816 24.5607 94.6509 23.858C94.2202 23.144 94.0049 22.3337 94.0049 21.427C94.0049 20.509 94.2146 19.6987 94.6339 18.996C95.0646 18.282 95.6482 17.7267 96.3849 17.33C97.1216 16.922 97.9546 16.718 98.8839 16.718C99.7792 16.718 100.584 16.9107 101.298 17.296C102.023 17.67 102.596 18.214 103.015 18.928C103.434 19.6307 103.644 20.475 103.644 21.461C103.644 21.563 103.638 21.682 103.627 21.818C103.616 21.9427 103.604 22.0617 103.593 22.175H96.1639V20.628H102.199L101.179 21.087C101.179 20.611 101.083 20.1973 100.89 19.846C100.697 19.4947 100.431 19.2227 100.091 19.03C99.7509 18.826 99.3542 18.724 98.9009 18.724C98.4476 18.724 98.0452 18.826 97.6939 19.03C97.3539 19.2227 97.0876 19.5003 96.8949 19.863C96.7022 20.2143 96.6059 20.6337 96.6059 21.121V21.529C96.6059 22.0277 96.7136 22.4697 96.9289 22.855C97.1556 23.229 97.4672 23.518 97.8639 23.722C98.2719 23.9147 98.7479 24.011 99.2919 24.011C99.7792 24.011 100.204 23.9373 100.567 23.79C100.941 23.6427 101.281 23.4217 101.587 23.127L102.998 24.657C102.579 25.133 102.052 25.5013 101.417 25.762C100.782 26.0113 100.051 26.136 99.2239 26.136Z" fill="black"></path>
</svg>
